# xmcd
#
# Track frame offsets: 
#        150
#        14317
#        31348
#        47669
#        68781
#        80128
#        92467
#        107947
#        121015
#        134419
#        150180
#        169201
#        183080
#        203772
#        220847
#
# Disc length: 3244 seconds
#
# Revision: 2
# Processed by: cddbd v1.5.2PL0 Copyright (c) Steve Scherf et al.
# Submitted via: ExactAudioCopy v0.95a4
#
DISCID=be0caa0f
DTITLE=John Anderson - Anthology [CD2]
DYEAR=2002
DGENRE=Country
TTITLE0=Black Sheep
TTITLE1=Goin' Down Hill
TTITLE2=Wish I Could Have Been There
TTITLE3=Bend It 'Til It Breaks
TTITLE4=Tokyo Oklahoma
TTITLE5=Straight Tequila Night
TTITLE6=Let Go Of The Stone
TTITLE7=I've Got It Made
TTITLE8=A Small Farm In Kentucky
TTITLE9=Somebody Slap Me
TTITLE10=Mississippi Moon
TTITLE11=Money In The Bank
TTITLE12=When It Comes To You
TTITLE13=Peace In The Valley
TTITLE14=Seminole Wind
EXTD=YEAR: 2002
EXTT0=
EXTT1=
EXTT2=
EXTT3=
EXTT4=
EXTT5=
EXTT6=
EXTT7=
EXTT8=
EXTT9=
EXTT10=
EXTT11=
EXTT12=
EXTT13=
EXTT14=
PLAYORDER=
